<svg id="Layer_1" enable-background="new 0 0 256 256" height="512" viewBox="0 0 256 256" width="512" xmlns="http://www.w3.org/2000/svg"><path d="m163.725 62.408h-19.486c7.6 0 13.761 6.161 13.761 13.761v120.831c0 16.569-13.431 30-30 30 36.451 0 66-29.549 66-66v-68.316c0-16.721-13.555-30.276-30.275-30.276z" fill="#d3ba2a"/><path d="m98 197v-120.83c0-7.6 6.161-13.761 13.761-13.761h-19.486c-16.72-.001-30.275 13.554-30.275 30.275v68.316c0 36.451 29.549 66 66 66-16.569 0-30-13.431-30-30z" fill="#ede49d"/><path d="m158 197v-120.83c0-7.6-6.161-13.761-13.761-13.761h-32.477c-7.601-.001-13.762 6.161-13.762 13.761v120.83c0 16.569 13.431 30 30 30s30-13.431 30-30z" fill="#eee045"/><path d="m133.954 116.408h-11.907c-6.653 0-12.046-5.393-12.046-12.046v14.638c0 9.941 8.059 18 18 18s18-8.059 18-18v-14.638c-.001 6.653-5.394 12.046-12.047 12.046z" fill="#4b67b0"/><path d="m110 62.408h36v20.592h-36z" fill="#89aadb"/><path d="m110 104.362c0 6.653 5.393 12.046 12.046 12.046h11.907c6.653 0 12.046-5.393 12.046-12.046v-21.362h-36v21.362z" fill="#6287c5"/><path d="m128 230c-38.047 0-69-30.953-69-69v-68.316c0-18.348 14.927-33.275 33.275-33.275h71.45c18.348 0 33.275 14.927 33.275 33.275v68.316c0 38.047-30.953 69-69 69zm-35.725-164.592c-15.04 0-27.275 12.236-27.275 27.276v68.316c0 34.738 28.262 63 63 63s63-28.262 63-63v-68.316c0-15.04-12.235-27.275-27.275-27.275h-71.45z" fill="#1c2d6b"/><path d="m128 71c-3.314 0-6 2.686-6 6v15.468c0-1.915 1.553-3.468 3.468-3.468h5.063c1.915 0 3.468 1.553 3.468 3.468v-15.468c.001-3.314-2.685-6-5.999-6z" fill="#ef7f72"/><path d="m130.532 107.065h-5.063c-1.915 0-3.468-1.553-3.468-3.468v15.468c0 3.314 2.686 6 6 6s6-2.686 6-6v-15.468c-.001 1.915-1.554 3.468-3.469 3.468z" fill="#e8383b"/><path d="m130.532 89h-5.063c-1.915 0-3.468 1.553-3.468 3.468v11.129c0 1.915 1.553 3.468 3.468 3.468h5.063c1.915 0 3.468-1.553 3.468-3.468v-11.129c0-1.915-1.553-3.468-3.468-3.468z" fill="#e95947"/><g fill="#1c2d6b"><path d="m128 128.065c-4.962 0-9-4.038-9-9v-42.065c0-4.962 4.038-9 9-9 4.963 0 9 4.038 9 9v42.065c0 4.963-4.037 9-9 9zm0-54.065c-1.654 0-3 1.346-3 3v42.065c0 1.654 1.346 3 3 3s3-1.346 3-3v-42.065c0-1.654-1.346-3-3-3z"/><path d="m128 176c-1.657 0-3-1.343-3-3v-36c0-1.657 1.343-3 3-3s3 1.343 3 3v36c0 1.657-1.343 3-3 3z"/><path d="m128 140c-11.58 0-21-9.42-21-21v-56.592c0-1.657 1.343-3 3-3h36c1.657 0 3 1.343 3 3v56.592c0 11.58-9.421 21-21 21zm-15-74.592v53.592c0 8.271 6.729 15 15 15s15-6.729 15-15v-53.592z"/></g><path d="m135 48.408h-6.326c1.447 0 2.619 1.173 2.619 2.619v11.381h8.707v-9c0-2.761-2.239-5-5-5z" fill="#419b46"/><path d="m127.326 48.408h-6.326c-2.761 0-5 2.239-5 5v9h8.706v-11.38c0-1.447 1.173-2.62 2.62-2.62z" fill="#a4d4a0"/><path d="m128.674 48.408h-1.348c-1.447 0-2.619 1.173-2.619 2.619v11.381h6.587v-11.38c0-1.447-1.173-2.62-2.62-2.62z" fill="#65bc49"/><path d="m140 65.408h-24c-1.657 0-3-1.343-3-3v-9c0-4.411 3.589-8 8-8h14c4.411 0 8 3.589 8 8v9c0 1.657-1.343 3-3 3zm-21-6h18v-6c0-1.103-.897-2-2-2h-14c-1.103 0-2 .897-2 2z" fill="#1c2d6b"/><path d="m122 29h12v19.408h-12z" fill="#ef7f72"/><path d="m134 51.408h-12c-1.657 0-3-1.343-3-3v-19.408c0-1.657 1.343-3 3-3h12c1.657 0 3 1.343 3 3v19.408c0 1.657-1.343 3-3 3zm-9-6h6v-13.408h-6z" fill="#1c2d6b"/></svg>