<?xml version="1.0" encoding="utf-8"?>
<!-- Generator: Adobe Illustrator 19.0.0, SVG Export Plug-In . SVG Version: 6.00 Build 0)  -->
<svg version="1.1" id="Layer_1" xmlns="http://www.w3.org/2000/svg" xmlns:xlink="http://www.w3.org/1999/xlink" x="0px" y="0px"
	 viewBox="0 0 1080 1080" style="enable-background:new 0 0 1080 1080;" xml:space="preserve">
<style type="text/css">
	.st0{fill:#EDFF7B;}
</style>
<g id="XMLID_1_">
	<path id="XMLID_3_" class="st0" d="M811,660.2c0,30.3-5.8,58.7-17.5,85.2c-11.6,26.5-27.3,49.5-47.1,69.3s-42.9,35.5-69.3,47.1
		c-26.5,11.6-54.8,17.5-85.2,17.5H227v-37c0-14.8,2.8-28.9,8.5-42.3c5.6-13.4,13.4-25,23.3-34.9s21.5-17.6,34.9-23.3
		s27.5-8.5,42.3-8.5h256c20.5,0,37.7-7,51.8-21.2c14.1-14.1,21.2-31.4,21.2-51.8c0-20.5-7.1-37.7-21.2-51.8
		c-14.1-14.1-31.4-21.2-51.8-21.2H446c-26.1,0-50.8-4.2-74.1-12.7s-44.4-20.5-63.5-36c-19-15.5-35.3-33.9-48.7-55.1
		c-13.4-21.2-22.9-44.5-28.6-69.9c-5.6-26.8-6.2-53.5-1.6-79.9c4.6-26.5,13.2-51.2,25.9-74.1s29.1-43.1,49.2-60.4
		c20.1-17.3,42.8-30.2,68.3-38.6V367c0,19.8,7.4,37.1,22.2,51.9s31.7,22.2,50.8,22.2h146c30.3,0,58.9,5.7,85.7,16.9
		c26.8,11.3,50.1,26.8,69.8,46.5s35.3,43,46.5,69.8C805.4,601.3,811,629.8,811,660.2z M387.8,323.8V156.6
		c20.4-5.6,39.8-8.5,58.2-8.5h365v7c0,19.1-3.5,37.2-10.6,54.1c-7.1,17-16.9,31.8-29.6,44.6s-27.5,22.6-44.4,29.7
		c-16.9,7.1-34.9,10.6-54,10.6H446c-12,0-22.9,2.7-32.8,7.9S394.9,314.6,387.8,323.8z"/>
</g>
</svg>
